<svg id="visual" viewBox="0 0 960 540" width="960" height="540" xmlns="http://www.w3.org/2000/svg" xmlns:xlink="http://www.w3.org/1999/xlink" version="1.1"><rect x="0" y="0" width="960" height="540" fill="#f9f9f9"></rect><path d="M0 463L16 455.7C32 448.3 64 433.7 96 430.3C128 427 160 435 192 440.7C224 446.3 256 449.7 288 446.3C320 443 352 433 384 435.5C416 438 448 453 480 456C512 459 544 450 576 447.8C608 445.7 640 450.3 672 453.2C704 456 736 457 768 458.2C800 459.3 832 460.7 864 461.8C896 463 928 464 944 464.5L960 465L960 541L944 541C928 541 896 541 864 541C832 541 800 541 768 541C736 541 704 541 672 541C640 541 608 541 576 541C544 541 512 541 480 541C448 541 416 541 384 541C352 541 320 541 288 541C256 541 224 541 192 541C160 541 128 541 96 541C64 541 32 541 16 541L0 541Z" fill="#893168"></path><path d="M0 482L16 478.3C32 474.7 64 467.3 96 465.7C128 464 160 468 192 469C224 470 256 468 288 463.5C320 459 352 452 384 448.5C416 445 448 445 480 449C512 453 544 461 576 466C608 471 640 473 672 471C704 469 736 463 768 459.3C800 455.7 832 454.3 864 453.8C896 453.3 928 453.7 944 453.8L960 454L960 541L944 541C928 541 896 541 864 541C832 541 800 541 768 541C736 541 704 541 672 541C640 541 608 541 576 541C544 541 512 541 480 541C448 541 416 541 384 541C352 541 320 541 288 541C256 541 224 541 192 541C160 541 128 541 96 541C64 541 32 541 16 541L0 541Z" fill="#a82c6b"></path><path d="M0 505L16 503.2C32 501.3 64 497.7 96 496.8C128 496 160 498 192 497.3C224 496.7 256 493.3 288 496.3C320 499.3 352 508.7 384 508C416 507.3 448 496.7 480 495.2C512 493.7 544 501.3 576 503C608 504.7 640 500.3 672 497.8C704 495.3 736 494.7 768 498C800 501.3 832 508.7 864 511C896 513.3 928 510.7 944 509.3L960 508L960 541L944 541C928 541 896 541 864 541C832 541 800 541 768 541C736 541 704 541 672 541C640 541 608 541 576 541C544 541 512 541 480 541C448 541 416 541 384 541C352 541 320 541 288 541C256 541 224 541 192 541C160 541 128 541 96 541C64 541 32 541 16 541L0 541Z" fill="#c62368"></path></svg>